Coordinates
version=1
nRows=54
nColumns=12
inDegrees=yes

Units are S.I. units (second, meters, Newtons, ...)
Angles are in degrees

endheader
time	SC_y	SC_z	SC_x	AC_y	AC_z	AC_x	GH_y	GH_z	GH_yy	EL_x	PS_y
       0.0              -53.66          34.15          12.71           38.0         -17.52         -3.143         -69.83          36.52          -95.4           56.2           81.3
   0.02997              -53.66          34.15          12.72           38.0         -17.52         -3.143         -69.84          36.52         -95.38           56.2           81.3
   0.05994              -53.66          34.15          12.73           38.0         -17.52         -3.142         -69.86          36.52         -95.35           56.2          81.29
   0.08991              -53.66          34.15          12.74           38.0         -17.52         -3.141         -69.87          36.53         -95.33          56.19          81.29
    0.1199              -53.65          34.15          12.75           38.0         -17.52         -3.141         -69.88          36.53          -95.3          56.19          81.28
    0.1498              -53.65          34.15          12.76           38.0         -17.52          -3.14          -69.9          36.53         -95.27          56.19          81.27
    0.1798              -53.65          34.15          12.77           38.0         -17.52         -3.139         -69.92          36.54         -95.23          56.18          81.27
    0.2098              -53.65          34.15          12.79           38.0         -17.52         -3.139         -69.93          36.54          -95.2          56.18          81.26
    0.2398              -53.64          34.15           12.8           38.0         -17.51         -3.138         -69.95          36.54         -95.16          56.18          81.25
    0.2697              -53.64          34.15          12.82           38.0         -17.51         -3.137         -69.97          36.55         -95.12          56.17          81.24
    0.2997              -53.64          34.15          12.83           38.0         -17.51         -3.136         -69.99          36.55         -95.07          56.17          81.23
    0.3297              -53.64          34.15          12.85           38.0         -17.51         -3.135         -70.01          36.56         -95.03          56.16          81.22
    0.3596              -53.63          34.15          12.87          38.01         -17.51         -3.134         -70.04          36.56         -94.98          56.16          81.21
    0.3896              -53.63          34.15          12.89          38.01         -17.51         -3.133         -70.07          36.57         -94.92          56.15           81.2
    0.4196              -53.62          34.15          12.91          38.01          -17.5         -3.131         -70.09          36.58         -94.86          56.14          81.19
    0.4495              -53.62          34.15          12.93          38.01          -17.5          -3.13         -70.12          36.58          -94.8          56.14          81.17
    0.4795              -53.61          34.15          12.96          38.01          -17.5         -3.128         -70.16          36.59         -94.73          56.13          81.16
    0.5095              -53.61          34.15          12.99          38.01          -17.5         -3.127          -70.2           36.6         -94.65          56.12          81.14
    0.5395               -53.6          34.15          13.02          38.01         -17.49         -3.125         -70.24          36.61         -94.57          56.11          81.12
    0.5694               -53.6          34.15          13.05          38.02         -17.49         -3.123         -70.28          36.62         -94.48           56.1           81.1
    0.5994              -53.59          34.15          13.09          38.02         -17.49         -3.121         -70.33          36.63         -94.38          56.09          81.08
    0.6294              -53.58          34.15          13.13          38.02         -17.48         -3.118         -70.38          36.64         -94.26          56.08          81.06
    0.6593              -53.57          34.15          13.17          38.02         -17.48         -3.116         -70.44          36.66         -94.14          56.07          81.03
    0.6893              -53.56          34.15          13.22          38.03         -17.47         -3.113          -70.5          36.67         -94.01          56.05           81.0
    0.7193              -53.55          34.15          13.28          38.03         -17.47         -3.109         -70.58          36.69         -93.86          56.04          80.97
    0.7492              -53.54          34.15          13.34          38.03         -17.46         -3.106         -70.66          36.71         -93.69          56.02          80.93
    0.7792              -53.53          34.15          13.41          38.04         -17.46         -3.102         -70.75          36.73          -93.5           56.0          80.89
    0.8092              -53.51          34.15          13.49          38.04         -17.45         -3.097         -70.85          36.75         -93.29          55.98          80.85
    0.8392              -53.49          34.15          13.57          38.05         -17.44         -3.092         -70.96          36.78         -93.05          55.95          80.79
    0.8691              -53.47          34.15          13.67          38.06         -17.43         -3.086         -71.09          36.81         -92.78          55.92          80.73
    0.8991              -53.45          34.15          13.79          38.06         -17.42         -3.079         -71.24          36.84         -92.47          55.89          80.67
    0.9291              -53.43          34.15          13.92          38.07         -17.41         -3.071         -71.41          36.88         -92.12          55.85          80.59
     0.959               -53.4          34.14          14.07          38.08          -17.4         -3.062         -71.61          36.92         -91.71          55.81           80.5
     0.989              -53.36          34.14          14.24          38.09         -17.38         -3.052         -71.84          36.98         -91.23          55.76           80.4
     1.019              -53.32          34.14          14.44           38.1         -17.36          -3.04         -72.11          37.04         -90.67           55.7          80.28
     1.049              -53.28          34.14          14.69          38.12         -17.34         -3.025         -72.42          37.11         -90.02          55.63          80.14
     1.079              -53.22          34.14          14.97          38.14         -17.31         -3.008          -72.8          37.19         -89.24          55.55          79.97
     1.109              -53.15          34.14          15.31          38.16         -17.28         -2.988         -73.25           37.3          -88.3          55.45          79.76
     1.139              -53.07          34.14          15.73          38.18         -17.24         -2.963         -73.79          37.42         -87.17          55.33          79.52
     1.169              -52.97          34.13          16.24          38.21         -17.19         -2.933         -74.46          37.57         -85.79          55.19          79.22
     1.199              -52.85          34.13          16.86          38.25         -17.13         -2.895         -75.28          37.76         -84.08          55.01          78.85
     1.229               -52.7          34.13          17.64           38.3         -17.06         -2.849          -76.3          37.99         -81.95          54.78          78.39
     1.259              -52.51          34.12          18.62          38.36         -16.97          -2.79         -77.59          38.29         -79.27           54.5          77.81
     1.289              -52.26          34.11          19.87          38.44         -16.85         -2.716         -79.23          38.66         -75.87          54.14          77.07
     1.319              -51.95           34.1          21.47          38.54          -16.7          -2.62         -81.33          39.14          -71.5          53.68          76.12
     1.349              -51.55          34.09          23.52          38.67         -16.51         -2.498         -84.02          39.75         -65.91          53.09          74.91
     1.379              -51.03          34.08          26.15          38.83         -16.26         -2.341         -87.46          40.54         -58.76          52.33          73.36
     1.409              -50.39          34.06          29.44          39.04         -15.95         -2.145         -91.78          41.52         -49.77          51.38          71.41
     1.439               -49.6          34.04          33.46          39.28         -15.58         -1.905         -97.05          42.72         -38.82          50.22          69.04
     1.469              -48.69          34.02          38.11          39.57         -15.14         -1.627         -103.2          44.11         -26.12          48.88          66.29
     1.498              -47.71          33.99          43.15          39.89         -14.67         -1.327         -109.8          45.62         -12.37          47.43          63.31
     1.528              -46.72          33.96          48.19           40.2         -14.19         -1.026         -116.4          47.13          1.378          45.98          60.33
     1.558              -45.81          33.94          52.85          40.49         -13.76         -0.748         -122.5          48.52          14.08          44.64          57.57
     1.588              -45.02          33.92          56.87          40.74         -13.38        -0.5084         -127.7          49.72          25.03          43.48           55.2
